<svg xmlns="http://www.w3.org/2000/svg" version="1.1" xmlns:xlink="http://www.w3.org/1999/xlink" xmlns:svgjs="http://svgjs.dev/svgjs" width="1500" height="1500" viewBox="0 0 1500 1500"><rect width="1500" height="1500" fill="#f6efd1"></rect><g transform="matrix(0.6666666666666666,0,0,0.6666666666666666,249.39436519522388,630.6069224957781)"><svg viewBox="0 0 396 95" data-background-color="#f6efd1" preserveAspectRatio="xMidYMid meet" height="359" width="1500" xmlns="http://www.w3.org/2000/svg" xmlns:xlink="http://www.w3.org/1999/xlink"><g id="tight-bounds" transform="matrix(1,0,0,1,0.24008861730862918,-0.10843605417349522)"><svg viewBox="0 0 395.52 95.21703342366756" height="95.21703342366756" width="395.52"><g><svg viewBox="0 0 395.52 95.21703342366756" height="95.21703342366756" width="395.52"><g><svg viewBox="0 0 395.52 95.21703342366756" height="95.21703342366756" width="395.52"><g id="textblocktransform"><svg viewBox="0 0 395.52 95.21703342366756" height="95.21703342366756" width="395.52" id="textblock"><g><svg viewBox="0 0 395.52 95.21703342366756" height="95.21703342366756" width="395.52"><path d="M394.594 20.422C392.735 10.539 387.435 7.791 387.435 7.791 371.165-2.389 350.86-0.195 332.619 1.268 300.414 1.327 268.339 3.502 236.208 4.668 168.767 4.846 100.749 1.92 33.643 9.135 27.339 11.349-6.54 9.57 1.121 21.687 3.129 26.728 10.456 32.322 10.232 36.947 11.236 37.758 12.631 35.9 13.226 37.066 15.309 40.209 18.711 38.726 21.501 40.585 17.614 45.546 20.403 49.677 23.062 54.006 18.377 55.133 12.371 54.599 9.675 58.335 9.396 61.043 7.89 60.529 6.235 60.411 5.026 60.332 2.59 60.628 2.999 61.478 4.394 64.384-1.594 66.064 2.162 68.911-0.422 71.994 3.948 74.663 3.353 78.003 3.278 78.676 3.687 79.249 4.338 79.407 7.22 80.257 3.018 81.917 3.464 83.716 33.029 96.011 65.104 87.511 95.394 93.165 103.259 89.211 97.346 94.568 100.489 93.738 102.943 92.769 104.728 96.782 107.499 94.509 107.927 93.857 107.276 92.315 108.8 92.611 109.6 92.769 110.307 92.73 110.418 91.821 110.586 90.457 109.117 91.307 108.726 90.595 112.947 86.997 111.906 95.557 115.866 95.201 115.68 94.153 114.528 92.651 116.889 92.848 119.232 91.346 119.306 90.101 121.389 93.481 121.463 94.212 121.835 94.726 122.43 95.082 128.938 91.405 135.409 96.387 142.233 94.726 146.417 92.908 150.433 95.715 154.672 95.023 156.16 94.469 157.666 93.481 159.098 95.141 176.632 95.497 195.319 94.015 211.943 95.201 256.364 92.987 303.836 96.11 350.674 93.185 361.719 92.058 373.192 90.457 383.958 89.172 383.958 89.172 392.679 85.653 392.679 69.84S394.538 56.003 394.817 43.411C395.096 30.82 396.398 30.306 394.538 20.422Z" opacity="1" fill="#672109" data-fill-palette-color="tertiary"></path><g transform="matrix(1,0,0,1,55.76832,26.230666666666668)"><svg width="283.98335999999995" viewBox="1.5 -49.3 498.11 75" height="42.75570009033422" data-palette-color="#f6efd1"><path d="M15.45 0L15.45 0 1.5-35.05Q3.4-36.35 5.8-36.6L5.8-36.6 17.55-7.1 28.95-36.6Q30.15-36.55 31.35-36.1 32.55-35.65 33.2-35.05L33.2-35.05 19.6 0Q19.2 0.15 18.73 0.25 18.25 0.35 17.55 0.35L17.55 0.35Q16.85 0.35 16.35 0.25 15.85 0.15 15.45 0ZM34.65-3.6L34.65-3.6Q35.7-3.6 36.9-4.25 38.1-4.9 39.15-6.25L39.15-6.25Q40.4-7.95 40.97-10.15 41.55-12.35 41.7-14.6L41.7-14.6 41.7-23.6Q42.15-23.75 42.75-23.85 43.35-23.95 44-23.95L44-23.95Q45.15-23.95 46.25-23.6L46.25-23.6 46.25-9.2Q46.25-6.55 47.07-5.08 47.9-3.6 49.85-3.6L49.85-3.6Q50.7-3.6 51-2.9 51.3-2.2 51.3-1.4L51.3-1.4Q51.3-0.6 50.87 0.05 50.45 0.7 49.5 0.7L49.5 0.7Q44.3 0.7 42.75-4.2L42.75-4.2Q42.05-3.05 41.25-2.25L41.25-2.25Q39.9-0.9 38.12-0.1 36.35 0.7 34.3 0.7L34.3 0.7Q33.6 0.7 33.22 0.03 32.85-0.65 32.85-1.45L32.85-1.45Q32.85-2.3 33.27-2.95 33.7-3.6 34.65-3.6ZM44.05-30.8L44.05-30.8Q42.65-30.8 41.65-31.8 40.65-32.8 40.65-34.2L40.65-34.2Q40.65-35.7 41.62-36.65 42.6-37.6 44.05-37.6L44.05-37.6Q45.55-37.6 46.5-36.65 47.45-35.7 47.45-34.2L47.45-34.2Q47.45-32.75 46.47-31.78 45.5-30.8 44.05-30.8ZM49.85-3.6L49.85-3.6Q51.45-3.6 53.02-5.15 54.6-6.7 55.75-9.35L55.75-9.35Q55.55-10.5 55.55-11.7L55.55-11.7Q55.55-15.4 56.95-18.23 58.35-21.05 60.82-22.68 63.3-24.3 66.5-24.3L66.5-24.3Q68.9-24.3 70.87-23.38 72.85-22.45 74.1-20.7L74.1-20.7Q73.5-18.65 71.2-17.75L71.2-17.75Q69.55-20 66.65-20L66.65-20Q63.75-20 61.97-17.82 60.2-15.65 60.2-11.95L60.2-11.95Q60.2-8.15 62.42-5.85 64.65-3.55 68.75-3.55L68.75-3.55Q69.4-3.55 69.82-2.93 70.25-2.3 70.25-1.35L70.25-1.35Q70.25-0.4 69.77 0.15 69.3 0.7 68.45 0.7L68.45 0.7Q64.9 0.7 62.15-0.6 59.4-1.9 57.75-4.25L57.75-4.25Q54.65 0.7 49.5 0.7L49.5 0.7Q48.85 0.7 48.45 0.1 48.05-0.5 48.05-1.45L48.05-1.45Q48.05-3.6 49.85-3.6ZM73.74-3.6L73.74-3.6Q74.99-3.6 76.62-4.35 78.24-5.1 79.79-6.9 81.34-8.7 82.34-11.78 83.34-14.85 83.34-19.5L83.34-19.5 83.34-24.3 79.64-24.3Q79.29-25.1 79.29-26.3 79.29-27.5 79.64-28.3L79.64-28.3 83.34-28.3 83.34-37.15Q84.29-37.5 85.64-37.5L85.64-37.5Q86.84-37.5 87.94-37.15L87.94-37.15 87.94-28.3 95.39-28.3Q95.79-27.5 95.79-26.3 95.79-25.1 95.39-24.3L95.39-24.3 87.94-24.3 87.94-13.95Q87.94-8.95 89.47-6.28 90.99-3.6 93.79-3.6L93.79-3.6Q95.24-3.6 95.24-1.4L95.24-1.4Q95.24-0.45 94.77 0.13 94.29 0.7 93.44 0.7L93.44 0.7Q90.19 0.7 87.97-1.15 85.74-3 84.69-6.3L84.69-6.3Q82.59-2.7 79.54-1 76.49 0.7 73.39 0.7L73.39 0.7Q72.74 0.7 72.34 0.08 71.94-0.55 71.94-1.45L71.94-1.45Q71.94-2.4 72.39-3 72.84-3.6 73.74-3.6ZM93.79-3.6L93.79-3.6Q95.44-3.6 97.02-5.18 98.59-6.75 99.69-9.4L99.69-9.4Q99.49-10.6 99.49-11.85L99.49-11.85Q99.49-15.45 101.04-18.25 102.59-21.05 105.27-22.68 107.94-24.3 111.29-24.3L111.29-24.3Q114.64-24.3 117.29-22.68 119.94-21.05 121.47-18.25 122.99-15.45 122.99-11.85L122.99-11.85Q122.99-8.25 121.47-5.4 119.94-2.55 117.32-0.93 114.69 0.7 111.29 0.7L111.29 0.7Q108.24 0.7 105.77-0.63 103.29-1.95 101.69-4.25L101.69-4.25Q98.59 0.7 93.44 0.7L93.44 0.7Q92.79 0.7 92.39 0.1 91.99-0.5 91.99-1.45L91.99-1.45Q91.99-3.6 93.79-3.6ZM111.24-3.6L111.24-3.6Q114.44-3.6 116.37-5.85 118.29-8.1 118.29-11.85L118.29-11.85Q118.29-13.7 117.74-15.25L117.74-15.25Q114.74-15.35 112.32-16.45 109.89-17.55 108.49-19.45L108.49-19.45Q106.49-18.6 105.34-16.57 104.19-14.55 104.19-11.75L104.19-11.75Q104.19-8.1 106.12-5.85 108.04-3.6 111.24-3.6ZM124.99 0.7L124.99 0.7Q124.34 0.7 123.94 0.1 123.54-0.5 123.54-1.45L123.54-1.45Q123.54-3.6 125.34-3.6L125.34-3.6Q127.54-3.6 129.26-5.43 130.99-7.25 132.01-10.4 133.04-13.55 133.04-17.4L133.04-17.4Q133.04-18.3 132.94-19.05 132.84-19.8 132.69-20.3L132.69-20.3Q132.24-20.75 131.71-21.75 131.19-22.75 130.81-23.88 130.44-25 130.44-25.7L130.44-25.7Q131.04-26.65 132.36-27.18 133.69-27.7 135.29-27.45L135.29-27.45Q136.24-25.7 136.84-23.05L136.84-23.05Q138.34-23.1 140.89-23.7L140.89-23.7Q142.49-24.05 143.46-24.18 144.44-24.3 145.14-24.3L145.14-24.3Q147.84-24.3 149.39-22.28 150.94-20.25 150.94-16.8L150.94-16.8 150.94-8.75Q150.94-6 151.66-4.8 152.39-3.6 153.99-3.6L153.99-3.6Q154.69-3.6 155.06-3 155.44-2.4 155.44-1.4L155.44-1.4Q155.44-0.6 155.01 0.05 154.59 0.7 153.64 0.7L153.64 0.7Q146.39 0.7 146.39-8.2L146.39-8.2 146.39-15.95Q146.39-18.2 145.89-19.1 145.39-20 144.09-20L144.09-20Q143.64-20 143.09-19.9 142.54-19.8 141.14-19.5L141.14-19.5Q138.69-19 137.44-18.9L137.44-18.9Q137.49-18.1 137.49-17.3L137.49-17.3Q137.49-11.9 135.94-7.85 134.39-3.8 131.56-1.55 128.74 0.7 124.99 0.7ZM153.99-3.6L153.99-3.6Q155.04-3.6 156.24-4.25 157.44-4.9 158.49-6.25L158.49-6.25Q159.74-7.95 160.31-10.15 160.89-12.35 161.04-14.6L161.04-14.6 161.04-23.6Q161.49-23.75 162.09-23.85 162.69-23.95 163.34-23.95L163.34-23.95Q164.49-23.95 165.59-23.6L165.59-23.6 165.59-9.2Q165.59-6.55 166.41-5.08 167.24-3.6 169.19-3.6L169.19-3.6Q170.04-3.6 170.34-2.9 170.64-2.2 170.64-1.4L170.64-1.4Q170.64-0.6 170.21 0.05 169.79 0.7 168.84 0.7L168.84 0.7Q163.64 0.7 162.09-4.2L162.09-4.2Q161.39-3.05 160.59-2.25L160.59-2.25Q159.24-0.9 157.46-0.1 155.69 0.7 153.64 0.7L153.64 0.7Q152.94 0.7 152.56 0.03 152.19-0.65 152.19-1.45L152.19-1.45Q152.19-2.3 152.61-2.95 153.04-3.6 153.99-3.6ZM163.39-30.8L163.39-30.8Q161.99-30.8 160.99-31.8 159.99-32.8 159.99-34.2L159.99-34.2Q159.99-35.7 160.96-36.65 161.94-37.6 163.39-37.6L163.39-37.6Q164.89-37.6 165.84-36.65 166.79-35.7 166.79-34.2L166.79-34.2Q166.79-32.75 165.81-31.78 164.84-30.8 163.39-30.8ZM169.18-3.6L169.18-3.6Q170.88-3.6 172.51-5.28 174.13-6.95 175.23-9.8L175.23-9.8Q175.18-10.5 175.18-11.2L175.18-11.2Q175.18-15 176.68-17.95 178.18-20.9 180.76-22.6 183.33-24.3 186.63-24.3L186.63-24.3Q188.38-24.3 190.08-23.63 191.78-22.95 192.93-21.8L192.93-21.8 192.93-23.85Q193.38-24 193.98-24.1 194.58-24.2 195.23-24.2L195.23-24.2Q196.43-24.2 197.48-23.85L197.48-23.85 197.48-9.2Q197.48-6.55 198.31-5.08 199.13-3.6 201.08-3.6L201.08-3.6Q201.93-3.6 202.23-2.9 202.53-2.2 202.53-1.4L202.53-1.4Q202.53-0.6 202.11 0.05 201.68 0.7 200.73 0.7L200.73 0.7Q195.83 0.7 194.18-3.7L194.18-3.7Q192.73-1.65 190.56-0.48 188.38 0.7 185.73 0.7L185.73 0.7Q182.83 0.7 180.61-0.58 178.38-1.85 176.98-4.1L176.98-4.1Q173.88 0.7 168.83 0.7L168.83 0.7Q168.18 0.7 167.78 0.1 167.38-0.5 167.38-1.45L167.38-1.45Q167.38-3.6 169.18-3.6ZM179.83-11.2L179.83-11.2Q179.83-7.65 181.46-5.63 183.08-3.6 185.93-3.6L185.93-3.6Q189.08-3.6 191.01-5.75 192.93-7.9 192.93-11.4L192.93-11.4 192.93-17Q191.93-18.35 190.38-19.18 188.83-20 187.18-20L187.18-20Q185.03-20 183.38-18.85 181.73-17.7 180.78-15.73 179.83-13.75 179.83-11.2ZM223.58 0.35L223.58 0.35Q222.48 0.35 221.28 0L221.28 0 221.28-36.1Q222.33-36.45 223.58-36.45L223.58-36.45Q224.73-36.45 225.93-36.1L225.93-36.1 225.93-16.7 242.93-36.75Q244.08-36.55 245.05-35.75 246.03-34.95 246.38-33.8L246.38-33.8 234.93-20.45 249.53-2.3Q249.33-1.25 248.28-0.35 247.23 0.55 245.98 0.7L245.98 0.7 231.93-17 225.93-9.95 225.93 0Q224.88 0.35 223.58 0.35ZM250.48-3.6L250.48-3.6Q252.18-3.6 253.8-5.28 255.43-6.95 256.53-9.8L256.53-9.8Q256.48-10.5 256.48-11.2L256.48-11.2Q256.48-15 257.98-17.95 259.48-20.9 262.05-22.6 264.63-24.3 267.93-24.3L267.93-24.3Q269.68-24.3 271.38-23.63 273.08-22.95 274.23-21.8L274.23-21.8 274.23-23.85Q274.68-24 275.28-24.1 275.88-24.2 276.53-24.2L276.53-24.2Q277.73-24.2 278.78-23.85L278.78-23.85 278.78-9.2Q278.78-6.55 279.6-5.08 280.43-3.6 282.38-3.6L282.38-3.6Q283.23-3.6 283.53-2.9 283.83-2.2 283.83-1.4L283.83-1.4Q283.83-0.6 283.4 0.05 282.98 0.7 282.03 0.7L282.03 0.7Q277.13 0.7 275.48-3.7L275.48-3.7Q274.03-1.65 271.85-0.48 269.68 0.7 267.03 0.7L267.03 0.7Q264.13 0.7 261.9-0.58 259.68-1.85 258.28-4.1L258.28-4.1Q255.18 0.7 250.13 0.7L250.13 0.7Q249.48 0.7 249.08 0.1 248.68-0.5 248.68-1.45L248.68-1.45Q248.68-3.6 250.48-3.6ZM261.13-11.2L261.13-11.2Q261.13-7.65 262.75-5.63 264.38-3.6 267.23-3.6L267.23-3.6Q270.38-3.6 272.3-5.75 274.23-7.9 274.23-11.4L274.23-11.4 274.23-17Q273.23-18.35 271.68-19.18 270.13-20 268.48-20L268.48-20Q266.33-20 264.68-18.85 263.03-17.7 262.08-15.73 261.13-13.75 261.13-11.2ZM282.02 0.7L282.02 0.7Q281.37 0.7 280.97 0.1 280.57-0.5 280.57-1.45L280.57-1.45Q280.57-3.6 282.37-3.6L282.37-3.6Q283.97-3.6 285.92-5.58 287.87-7.55 290.47-11.95L290.47-11.95 295.82-21Q295.72-21.7 295.72-22.5L295.72-22.5Q295.72-25 296.65-26.2 297.57-27.4 298.17-27.65L298.17-27.65Q299.02-27.85 300-27.63 300.97-27.4 301.77-26.9 302.57-26.4 302.87-25.7L302.87-25.7Q302.67-24.8 302.12-23.55 301.57-22.3 300.37-20.2L300.37-20.2Q300.72-19.65 301.27-19.1 301.82-18.55 302.62-17.9L302.62-17.9 306.42-14.8Q308.47-13.15 309.5-11.38 310.52-9.6 310.52-7.4L310.52-7.4Q310.52-4.75 309.02-2.7L309.02-2.7Q309.27-2.15 309.27-1.4L309.27-1.4Q309.27-0.45 308.8 0.13 308.32 0.7 307.47 0.7L307.47 0.7Q306.67 0.7 305.92 0.6 305.17 0.5 304.27 0.35L304.27 0.35Q302.92 0.7 301.42 0.7L301.42 0.7Q299.67 0.7 297.92 0.18 296.17-0.35 294.27-1.5L294.27-1.5Q294.17-4.15 296.27-5.4L296.27-5.4Q299.02-3.6 301.47-3.6L301.47-3.6Q303.57-3.6 304.82-4.73 306.07-5.85 306.07-7.6L306.07-7.6Q306.07-9.8 303.67-11.7L303.67-11.7 299.87-14.7Q298.87-15.5 298.07-16.35L298.07-16.35 293.07-7.9Q290.32-3.25 287.8-1.28 285.27 0.7 282.02 0.7ZM312.37 0.7L312.37 0.7Q311.72 0.7 311.32 0.1 310.92-0.5 310.92-1.45L310.92-1.45Q310.92-3.6 312.72-3.6L312.72-3.6Q314.32-3.6 315.6-5.23 316.87-6.85 317.82-10.65L317.82-10.65 319.32-16.5Q321.42-24.3 327.32-24.3L327.32-24.3Q329.47-24.3 331-23.08 332.52-21.85 333.17-19.7L333.17-19.7Q334.32-21.9 336.2-23.1 338.07-24.3 340.42-24.3L340.42-24.3Q345.32-24.3 347.07-19.25L347.07-19.25Q348.27-21.65 350.32-22.98 352.37-24.3 354.97-24.3L354.97-24.3Q358.52-24.3 360.42-22.05 362.32-19.8 362.32-15.7L362.32-15.7 362.32-8.75Q362.32-6 363.05-4.8 363.77-3.6 365.37-3.6L365.37-3.6Q366.07-3.6 366.45-3 366.82-2.4 366.82-1.4L366.82-1.4Q366.82-0.6 366.4 0.05 365.97 0.7 365.02 0.7L365.02 0.7Q357.77 0.7 357.77-8.2L357.77-8.2 357.77-14.6Q357.77-17.2 356.82-18.6 355.87-20 354.12-20L354.12-20Q351.47-20 349.95-16.98 348.42-13.95 348.42-8.6L348.42-8.6 348.42 0Q347.92 0.15 347.32 0.25 346.72 0.35 346.17 0.35L346.17 0.35Q344.97 0.35 343.87 0L343.87 0 343.87-13.9Q343.87-16.85 342.85-18.43 341.82-20 339.82-20L339.82-20Q337.97-20 336.62-18.57 335.27-17.15 334.5-14.58 333.72-12 333.72-8.6L333.72-8.6 333.72 0Q333.22 0.15 332.62 0.25 332.02 0.35 331.47 0.35L331.47 0.35Q330.22 0.35 329.22 0L329.22 0 329.22-15.95Q329.22-20 326.92-20L326.92-20Q325.87-20 325.12-19.05 324.37-18.1 323.82-16L323.82-16 321.97-8.8Q320.67-3.85 318.37-1.58 316.07 0.7 312.37 0.7ZM365.37-3.6L365.37-3.6Q366.42-3.6 367.62-4.25 368.82-4.9 369.87-6.25L369.87-6.25Q371.12-7.95 371.69-10.15 372.27-12.35 372.42-14.6L372.42-14.6 372.42-23.6Q372.87-23.75 373.47-23.85 374.07-23.95 374.72-23.95L374.72-23.95Q375.87-23.95 376.97-23.6L376.97-23.6 376.97-9.2Q376.97-6.55 377.79-5.08 378.62-3.6 380.57-3.6L380.57-3.6Q381.42-3.6 381.72-2.9 382.02-2.2 382.02-1.4L382.02-1.4Q382.02-0.6 381.59 0.05 381.17 0.7 380.22 0.7L380.22 0.7Q375.02 0.7 373.47-4.2L373.47-4.2Q372.77-3.05 371.97-2.25L371.97-2.25Q370.62-0.9 368.84-0.1 367.07 0.7 365.02 0.7L365.02 0.7Q364.32 0.7 363.94 0.03 363.57-0.65 363.57-1.45L363.57-1.45Q363.57-2.3 363.99-2.95 364.42-3.6 365.37-3.6ZM374.77-30.8L374.77-30.8Q373.37-30.8 372.37-31.8 371.37-32.8 371.37-34.2L371.37-34.2Q371.37-35.7 372.34-36.65 373.32-37.6 374.77-37.6L374.77-37.6Q376.27-37.6 377.22-36.65 378.17-35.7 378.17-34.2L378.17-34.2Q378.17-32.75 377.19-31.78 376.22-30.8 374.77-30.8ZM380.22 0.7L380.22 0.7Q379.57 0.7 379.17 0.1 378.77-0.5 378.77-1.45L378.77-1.45Q378.77-3.6 380.57-3.6L380.57-3.6Q382.17-3.6 383.44-5.23 384.72-6.85 385.67-10.65L385.67-10.65 387.17-16.5Q389.27-24.3 395.17-24.3L395.17-24.3Q397.42-24.3 398.97-22.98 400.52-21.65 401.12-19.4L401.12-19.4Q402.52-21.75 404.72-23.03 406.92-24.3 409.62-24.3L409.62-24.3Q413.52-24.3 415.64-21.75 417.77-19.2 417.77-14.6L417.77-14.6 417.77-8.75Q417.77-6 418.49-4.8 419.22-3.6 420.82-3.6L420.82-3.6Q421.52-3.6 421.89-3 422.27-2.4 422.27-1.4L422.27-1.4Q422.27-0.6 421.84 0.05 421.42 0.7 420.47 0.7L420.47 0.7Q413.22 0.7 413.22-8.2L413.22-8.2 413.22-14.6Q413.22-20 408.97-20L408.97-20Q406.77-20 405.09-18.25 403.42-16.5 402.49-13.4 401.57-10.3 401.57-6.2L401.57-6.2 401.57 0Q401.07 0.15 400.47 0.25 399.87 0.35 399.32 0.35L399.32 0.35Q398.12 0.35 397.07 0L397.07 0 397.07-15.95Q397.07-17.9 396.57-18.95 396.07-20 394.77-20L394.77-20Q393.72-20 392.97-19.05 392.22-18.1 391.67-16L391.67-16 389.82-8.8Q388.52-3.85 386.22-1.58 383.92 0.7 380.22 0.7ZM420.81-3.6L420.81-3.6Q422.46-3.6 424.04-5.18 425.61-6.75 426.71-9.4L426.71-9.4Q426.51-10.6 426.51-11.85L426.51-11.85Q426.51-15.45 428.06-18.25 429.61-21.05 432.29-22.68 434.96-24.3 438.31-24.3L438.31-24.3Q441.66-24.3 444.31-22.68 446.96-21.05 448.49-18.25 450.01-15.45 450.01-11.85L450.01-11.85Q450.01-8.25 448.49-5.4 446.96-2.55 444.34-0.93 441.71 0.7 438.31 0.7L438.31 0.7Q435.26 0.7 432.79-0.63 430.31-1.95 428.71-4.25L428.71-4.25Q425.61 0.7 420.46 0.7L420.46 0.7Q419.81 0.7 419.41 0.1 419.01-0.5 419.01-1.45L419.01-1.45Q419.01-3.6 420.81-3.6ZM438.26-3.6L438.26-3.6Q441.46-3.6 443.39-5.85 445.31-8.1 445.31-11.85L445.31-11.85Q445.31-13.7 444.76-15.25L444.76-15.25Q441.76-15.35 439.34-16.45 436.91-17.55 435.51-19.45L435.51-19.45Q433.51-18.6 432.36-16.57 431.21-14.55 431.21-11.75L431.21-11.75Q431.21-8.1 433.14-5.85 435.06-3.6 438.26-3.6ZM467.41 25.7L467.41 25.7Q463.21 25.7 461.36 22.6 459.51 19.5 459.51 14.05L459.51 14.05 459.51-2.55Q457.81-0.8 456.04-0.05 454.26 0.7 452.06 0.7L452.06 0.7Q451.41 0.7 451.01 0.1 450.61-0.5 450.61-1.45L450.61-1.45Q450.61-2.45 451.09-3.03 451.56-3.6 452.36-3.6L452.36-3.6Q454.11-3.6 455.81-4.78 457.51-5.95 459.51-8.55L459.51-8.55 459.51-37.5Q459.51-40.2 459.94-42.43 460.36-44.65 461.46-46.25L461.46-46.25Q462.36-47.6 463.79-48.45 465.21-49.3 467.36-49.3L467.36-49.3Q471.26-49.3 473.36-45.8 475.46-42.3 475.46-35.9L475.46-35.9Q475.46-20.65 466.11-9.4L466.11-9.4Q469.41-8.3 471.76-4.7L471.76-4.7Q473.46-3.6 475.26-3.6L475.26-3.6Q475.91-3.6 476.31-3 476.71-2.4 476.71-1.4L476.71-1.4Q476.71-0.45 476.24 0.13 475.76 0.7 474.91 0.7L474.91 0.7Q474.56 0.7 474.26 0.7L474.26 0.7Q475.06 3.2 475.49 6.18 475.91 9.15 475.91 12.45L475.91 12.45Q475.91 19 473.74 22.35 471.56 25.7 467.41 25.7ZM463.96-38.55L463.96-38.55 463.96-13.6Q467.36-18.25 469.19-24.03 471.01-29.8 471.01-35.95L471.01-35.95Q471.01-40.45 470.09-42.8 469.16-45.15 467.36-45.15L467.36-45.15Q463.96-45.15 463.96-38.55ZM463.96-4.25L463.96 14.05Q463.96 17.8 464.81 19.7 465.66 21.6 467.66 21.6L467.66 21.6Q469.51 21.6 470.51 19.18 471.51 16.75 471.51 12.1L471.51 12.1Q471.51 4.2 469.36-0.6L469.36-0.6Q467.71-1.3 466.29-2.25 464.86-3.2 463.96-4.25L463.96-4.25ZM490.31 25.7L490.31 25.7Q486.11 25.7 484.26 22.6 482.41 19.5 482.41 14.05L482.41 14.05 482.41-2.55Q480.71-0.8 478.93-0.05 477.16 0.7 474.96 0.7L474.96 0.7Q474.31 0.7 473.91 0.1 473.51-0.5 473.51-1.45L473.51-1.45Q473.51-2.45 473.98-3.03 474.46-3.6 475.26-3.6L475.26-3.6Q477.01-3.6 478.71-4.78 480.41-5.95 482.41-8.55L482.41-8.55 482.41-37.5Q482.41-40.2 482.83-42.43 483.26-44.65 484.36-46.25L484.36-46.25Q485.26-47.6 486.68-48.45 488.11-49.3 490.26-49.3L490.26-49.3Q494.16-49.3 496.26-45.8 498.36-42.3 498.36-35.9L498.36-35.9Q498.36-20.65 489.01-9.4L489.01-9.4Q492.31-8.3 494.66-4.7L494.66-4.7Q496.36-3.6 498.16-3.6L498.16-3.6Q498.81-3.6 499.21-3 499.61-2.4 499.61-1.4L499.61-1.4Q499.61-0.45 499.13 0.13 498.66 0.7 497.81 0.7L497.81 0.7Q497.46 0.7 497.16 0.7L497.16 0.7Q497.96 3.2 498.38 6.18 498.81 9.15 498.81 12.45L498.81 12.45Q498.81 19 496.63 22.35 494.46 25.7 490.31 25.7ZM486.86-38.55L486.86-38.55 486.86-13.6Q490.26-18.25 492.08-24.03 493.91-29.8 493.91-35.95L493.91-35.95Q493.91-40.45 492.98-42.8 492.06-45.15 490.26-45.15L490.26-45.15Q486.86-45.15 486.86-38.55ZM486.86-4.25L486.86 14.05Q486.86 17.8 487.71 19.7 488.56 21.6 490.56 21.6L490.56 21.6Q492.41 21.6 493.41 19.18 494.41 16.75 494.41 12.1L494.41 12.1Q494.41 4.2 492.26-0.6L492.26-0.6Q490.61-1.3 489.18-2.25 487.76-3.2 486.86-4.25L486.86-4.25Z" opacity="1" transform="matrix(1,0,0,1,0,0)" fill="#f6efd1" class="wordmark-text-0" data-fill-palette-color="quaternary" id="text-0"></path></svg></g></svg></g></svg></g></svg></g><g></g></svg></g><defs></defs></svg><rect width="395.52" height="95.21703342366756" fill="none" stroke="none" visibility="hidden"></rect></g></svg></g></svg>